HIERARCHY
ROOT Hips
{
	OFFSET 0.000000 35.082581 0.000000
	CHANNELS 6 Xposition Yposition Zposition Xrotation Yrotation Zrotation 
	JOINT Spine
	{
		OFFSET 0.000000 6.876099 0.125700
		CHANNELS 3 Xrotation Yrotation Zrotation
		JOINT Spine1
		{
			OFFSET 0.000000 5.730043 0.104720
			CHANNELS 3 Xrotation Yrotation Zrotation
			JOINT Spine1_split
			{
				OFFSET 0.000000 5.730043 0.104720
				CHANNELS 3 Xrotation Yrotation Zrotation
				JOINT Spine2
				{
					OFFSET 0.000000 5.730043 0.104720
					CHANNELS 3 Xrotation Yrotation Zrotation
					JOINT Neck
					{
						OFFSET 0.000000 10.314075 0.188496
						CHANNELS 3 Xrotation Yrotation Zrotation
						JOINT Head
						{
							OFFSET 0.000000 7.643700 -2.377400
							CHANNELS 3 Xrotation Yrotation Zrotation
							JOINT HeadTop_End
							{
								OFFSET 0.000000 43.788605 -13.619600
								CHANNELS 3 Xrotation Yrotation Zrotation
								End Site
								{
									OFFSET 0.000000 0.000000 0.000000
								}
							}
						}
					}
					JOINT LeftShoulder
					{
						OFFSET 2.196100 4.412489 0.087492
						CHANNELS 3 Xrotation Yrotation Zrotation
						JOINT LeftShoulder_split
						{
							OFFSET 2.196100 4.412489 0.087492
							CHANNELS 3 Xrotation Yrotation Zrotation
							JOINT LeftArm
							{
								OFFSET 8.771219 -2.981674 -0.026999
								CHANNELS 3 Xrotation Yrotation Zrotation
								JOINT LeftForeArm
								{
									OFFSET 8.512804 0.000000 -0.000000
									CHANNELS 3 Xrotation Yrotation Zrotation
									JOINT LeftHand
									{
										OFFSET 18.484802 0.000000 -0.000000
										CHANNELS 3 Xrotation Yrotation Zrotation
										JOINT LeftHandThumb1
										{
											OFFSET 2.499420 -1.158070 2.653252
											CHANNELS 3 Xrotation Yrotation Zrotation
											JOINT LeftHandThumb2
											{
												OFFSET 2.370079 -1.368366 1.368366
												CHANNELS 3 Xrotation Yrotation Zrotation
												JOINT LeftHandThumb3
												{
													OFFSET 2.676727 -1.545410 1.545409
													CHANNELS 3 Xrotation Yrotation Zrotation
													JOINT LeftHandThumb4
													{
														OFFSET 1.692226 -0.977005 0.977007
														CHANNELS 3 Xrotation Yrotation Zrotation
														End Site
														{
															OFFSET 0.000000 0.000000 0.000000
														}
													}
												}
											}
										}
										JOINT LeftHandIndex1
										{
											OFFSET 7.924831 -0.457527 2.345128
											CHANNELS 3 Xrotation Yrotation Zrotation
											JOINT LeftHandIndex2
											{
												OFFSET 3.643303 0.000000 0.000000
												CHANNELS 3 Xrotation Yrotation Zrotation
												JOINT LeftHandIndex3
												{
													OFFSET 3.810799 0.000000 0.000000
													CHANNELS 3 Xrotation Yrotation Zrotation
													JOINT LeftHandIndex4
													{
														OFFSET 2.403702 0.000000 0.000000
														CHANNELS 3 Xrotation Yrotation Zrotation
														End Site
														{
															OFFSET 0.000000 0.000000 0.000000
														}
													}
												}
											}
										}
										JOINT LeftHandMiddle1
										{
											OFFSET 8.563995 0.000000 -0.000000
											CHANNELS 3 Xrotation Yrotation Zrotation
											JOINT LeftHandMiddle2
											{
												OFFSET 3.861618 0.000000 0.000000
												CHANNELS 3 Xrotation Yrotation Zrotation
												JOINT LeftHandMiddle3
												{
													OFFSET 3.701603 0.000000 0.000000
													CHANNELS 3 Xrotation Yrotation Zrotation
													JOINT LeftHandMiddle4
													{
														OFFSET 2.322544 0.000000 0.000000
														CHANNELS 3 Xrotation Yrotation Zrotation
														End Site
														{
															OFFSET 0.000000 0.000000 0.000000
														}
													}
												}
											}
										}
										JOINT LeftHandRing1
										{
											OFFSET 8.426460 -0.424637 -3.286992
											CHANNELS 3 Xrotation Yrotation Zrotation
											JOINT LeftHandRing2
											{
												OFFSET 3.126408 0.000000 0.000000
												CHANNELS 3 Xrotation Yrotation Zrotation
												JOINT LeftHandRing3
												{
													OFFSET 3.085026 0.000000 0.000000
													CHANNELS 3 Xrotation Yrotation Zrotation
													JOINT LeftHandRing4
													{
														OFFSET 1.644005 0.000000 0.000000
														CHANNELS 3 Xrotation Yrotation Zrotation
														End Site
														{
															OFFSET 0.000000 0.000000 0.000000
														}
													}
												}
											}
										}
									}
								}
							}
						}
					}
					JOINT RightShoulder
					{
						OFFSET -2.196100 4.412496 0.070690
						CHANNELS 3 Xrotation Yrotation Zrotation
						JOINT RightShoulder_split
						{
							OFFSET -2.196100 4.412496 0.070690
							CHANNELS 3 Xrotation Yrotation Zrotation
							JOINT RightArm
							{
								OFFSET -8.771282 -2.981682 -0.094208
								CHANNELS 3 Xrotation Yrotation Zrotation
								JOINT RightForeArm
								{
									OFFSET -8.494598 0.000000 0.000000
									CHANNELS 3 Xrotation Yrotation Zrotation
									JOINT RightHand
									{
										OFFSET -18.483803 0.000000 0.000001
										CHANNELS 3 Xrotation Yrotation Zrotation
										JOINT RightHandThumb1
										{
											OFFSET -2.527351 -1.008072 2.575253
											CHANNELS 3 Xrotation Yrotation Zrotation
											JOINT RightHandThumb2
											{
												OFFSET -2.321518 -1.340328 1.340329
												CHANNELS 3 Xrotation Yrotation Zrotation
												JOINT RightHandThumb3
												{
													OFFSET -2.657753 -1.534454 1.534455
													CHANNELS 3 Xrotation Yrotation Zrotation
													JOINT RightHandThumb4
													{
														OFFSET -1.807510 -1.043568 1.043567
														CHANNELS 3 Xrotation Yrotation Zrotation
														End Site
														{
															OFFSET 0.000000 0.000000 0.000000
														}
													}
												}
											}
										}
										JOINT RightHandIndex1
										{
											OFFSET -8.811420 0.015533 2.887987
											CHANNELS 3 Xrotation Yrotation Zrotation
											JOINT RightHandIndex2
											{
												OFFSET -3.537502 0.000000 0.000000
												CHANNELS 3 Xrotation Yrotation Zrotation
												JOINT RightHandIndex3
												{
													OFFSET -3.356201 0.000000 0.000000
													CHANNELS 3 Xrotation Yrotation Zrotation
													JOINT RightHandIndex4
													{
														OFFSET -1.933098 0.000000 0.000000
														CHANNELS 3 Xrotation Yrotation Zrotation
														End Site
														{
															OFFSET 0.000000 0.000000 0.000000
														}
													}
												}
											}
										}
										JOINT RightHandMiddle1
										{
											OFFSET -8.178135 0.000000 0.000000
											CHANNELS 3 Xrotation Yrotation Zrotation
											JOINT RightHandMiddle2
											{
												OFFSET -3.901302 0.000000 0.000000
												CHANNELS 3 Xrotation Yrotation Zrotation
												JOINT RightHandMiddle3
												{
													OFFSET -3.909599 0.000000 0.000000
													CHANNELS 3 Xrotation Yrotation Zrotation
													JOINT RightHandMiddle4
													{
														OFFSET -2.376003 0.000000 0.000000
														CHANNELS 3 Xrotation Yrotation Zrotation
														End Site
														{
															OFFSET 0.000000 0.000000 0.000000
														}
													}
												}
											}
										}
										JOINT RightHandRing1
										{
											OFFSET -7.559013 0.014137 -2.865403
											CHANNELS 3 Xrotation Yrotation Zrotation
											JOINT RightHandRing2
											{
												OFFSET -3.449306 0.000000 0.000000
												CHANNELS 3 Xrotation Yrotation Zrotation
												JOINT RightHandRing3
												{
													OFFSET -3.362106 0.000000 0.000000
													CHANNELS 3 Xrotation Yrotation Zrotation
													JOINT RightHandRing4
													{
														OFFSET -2.076401 0.000000 0.000000
														CHANNELS 3 Xrotation Yrotation Zrotation
														End Site
														{
															OFFSET 0.000000 0.000000 0.000000
														}
													}
												}
											}
										}
									}
								}
							}
						}
					}
				}
			}
		}
	}
	JOINT LeftUpLeg
	{
		OFFSET 10.205400 -3.823500 0.155100
		CHANNELS 3 Xrotation Yrotation Zrotation
		JOINT LeftLeg
		{
			OFFSET 0.708757 -12.982077 0.567790
			CHANNELS 3 Xrotation Yrotation Zrotation
			JOINT LeftFoot
			{
				OFFSET -0.708756 -10.717838 -2.184338
				CHANNELS 3 Xrotation Yrotation Zrotation
				JOINT LeftToeBase
				{
					OFFSET 0.108149 -7.191104 7.560241
					CHANNELS 3 Xrotation Yrotation Zrotation
					JOINT LeftToe_End
					{
						OFFSET 0.070230 0.081724 4.490308
						CHANNELS 3 Xrotation Yrotation Zrotation
						End Site
						{
							OFFSET 0.000000 0.000000 0.000000
						}
					}
				}
			}
		}
	}
	JOINT RightUpLeg
	{
		OFFSET -10.205400 -3.823500 0.005500
		CHANNELS 3 Xrotation Yrotation Zrotation
		JOINT RightLeg
		{
			OFFSET -0.708756 -12.982134 0.610632
			CHANNELS 3 Xrotation Yrotation Zrotation
			JOINT RightFoot
			{
				OFFSET 0.708754 -10.717769 -1.945823
				CHANNELS 3 Xrotation Yrotation Zrotation
				JOINT RightToeBase
				{
					OFFSET -0.108140 -7.191069 7.372968
					CHANNELS 3 Xrotation Yrotation Zrotation
					JOINT RightToe_End
					{
						OFFSET -0.070227 0.081735 4.479403
						CHANNELS 3 Xrotation Yrotation Zrotation
						End Site
						{
							OFFSET 0.000000 0.000000 0.000000
						}
					}
				}
			}
		}
	}
}
MOTION
Frames: 4
Frame Time: 0.016667
4.129989 33.308563 5.624076 -1.324074 5.867247 -5.726910 10.005284 -1.199345 3.121269 1.871315 -1.420408 1.481033 0.000000 0.000000 0.000000 -3.085457 -1.618650 0.047468 -2.263181 -2.413852 6.433475 -4.853450 1.032564 -5.132380 -0.000000 -0.000000 0.000000 1.744054 -3.421887 -0.743992 0.000000 0.000000 0.000000 -7.039706 -12.744838 -76.199981 9.887319 -11.719671 -4.534060 1.706385 -0.532275 7.848843 -4.356464 11.023665 11.798658 5.431330 10.003929 0.349298 2.355743 8.701267 3.488053 -0.000000 0.000001 -0.000002 2.289858 -1.111365 -15.774158 -0.017011 0.156532 -19.489060 0.028099 0.100564 -17.333799 0.000000 0.000001 0.000001 -0.324427 0.423835 -19.903217 0.047023 0.327321 -24.651818 0.030624 0.022120 -16.327487 -0.000002 0.000003 0.000002 -1.103124 2.349910 -19.788685 -0.026229 0.169240 -29.078284 0.072876 0.343789 -19.212880 0.000000 0.000000 0.000002 2.245588 4.208260 6.197035 0.000000 0.000000 0.000000 0.519969 4.376572 72.028832 11.172650 15.288357 2.172147 -7.832667 -0.659883 -5.101820 -0.466463 -9.625978 -6.004444 7.286180 -11.588854 1.091620 1.069327 -8.364388 -4.888923 0.000002 -0.000001 0.000002 2.690308 -4.660468 9.914401 -0.045368 -0.188965 19.171738 -0.054437 -0.137527 15.239837 -0.000001 -0.000000 -0.000002 -1.689188 -5.560296 14.804573 0.093486 -0.624792 27.014827 -0.054129 -0.066166 12.554010 -0.000001 -0.000001 -0.000003 -4.593404 -8.836045 12.400059 -0.024339 -0.323701 32.805884 0.109086 -0.661930 16.280625 0.000001 0.000001 0.000005 5.826109 10.690904 11.643128 24.652453 -8.672500 -1.996901 -30.708814 3.203363 -0.544926 -0.000017 0.013874 -0.000002 0.000000 0.000001 0.000000 -37.814752 -6.530610 -3.485194 35.649756 0.258885 1.324499 2.166392 0.879937 8.024796 2.226714 -0.483410 -0.382545 0.000000 -0.000000 0.000000 
4.120527 33.140327 6.114041 -1.195753 5.952083 -5.760488 10.192848 -1.280501 2.909145 1.658271 -1.547288 1.654122 0.000000 0.000000 0.000000 -3.099212 -1.728067 0.284327 -2.452573 -2.344112 6.184123 -4.954937 1.081390 -5.347817 0.000000 0.000000 -0.000000 1.747728 -3.049444 -1.011621 0.000000 0.000000 0.000000 -6.924675 -13.420951 -75.877842 9.745425 -12.188601 -4.775182 2.092408 -0.946475 8.152628 -4.383294 11.106633 11.775343 5.357281 9.945703 0.408967 2.400797 8.693755 3.424687 -0.000001 0.000002 -0.000000 2.245785 -1.355896 -16.178053 -0.017990 0.152859 -19.607397 0.027517 0.097605 -17.537573 0.000000 -0.000001 -0.000000 -0.299605 0.156418 -20.277022 0.045358 0.314819 -24.655745 0.030728 0.021996 -16.638664 0.000002 -0.000002 0.000001 -1.047577 1.972719 -20.300101 -0.026420 0.162934 -29.051008 0.072273 0.330191 -19.513461 -0.000001 -0.000003 0.000002 2.286466 4.046479 5.957232 0.000000 0.000000 0.000000 0.577118 4.140653 72.193515 11.311820 15.036760 2.556836 -7.641443 -0.666296 -5.228127 -0.468205 -9.956633 -5.963551 7.202611 -11.575627 0.986466 1.041511 -8.110845 -4.736250 0.000003 0.000002 -0.000000 2.686099 -4.470810 10.325784 -0.045355 -0.188976 19.198545 -0.053883 -0.137546 15.382549 0.000001 0.000001 -0.000003 -1.600187 -5.334334 15.148422 0.090087 -0.605979 26.848430 -0.052988 -0.067480 12.825190 0.000000 0.000001 -0.000000 -4.387620 -8.479945 12.961572 -0.024750 -0.313829 32.544933 0.107969 -0.641835 16.519338 0.000001 0.000001 0.000003 7.075288 10.683495 11.764023 24.360686 -8.684288 -1.991880 -31.792400 3.361289 -0.743629 -0.052553 -0.020433 0.045004 0.000000 -0.000000 0.000000 -37.678332 -6.731944 -3.204121 30.640198 1.119072 1.264819 2.691321 0.971605 7.990523 2.363978 -0.968630 -0.548157 -0.000000 0.000000 -0.000000 
4.103582 32.977657 6.600455 -1.051303 6.090622 -5.747657 10.279589 -1.382511 2.737427 1.530880 -1.655980 1.713170 0.000000 0.000000 0.000000 -3.029677 -1.822409 0.405165 -2.777380 -2.362638 6.163045 -5.001021 1.132729 -5.650766 -0.000000 0.000000 -0.000000 1.734719 -2.975688 -1.007655 0.000000 0.000000 0.000000 -6.950076 -13.745412 -75.686870 9.739457 -12.702269 -4.881122 2.520960 -1.552541 8.466073 -4.410154 11.189405 11.752203 5.283381 9.887571 0.468364 2.445782 8.686148 3.361420 -0.000003 0.000000 -0.000006 2.198456 -1.599442 -16.581459 -0.018968 0.149175 -19.725585 0.026852 0.094639 -17.741019 -0.000000 -0.000000 -0.000001 -0.278369 -0.110838 -20.650206 0.043791 0.302365 -24.659693 0.030869 0.021892 -16.950202 0.000000 0.000001 0.000000 -0.999198 1.595602 -20.811899 -0.026628 0.156632 -29.023653 0.071612 0.316721 -19.815238 -0.000001 0.000001 -0.000002 2.341277 3.697853 6.000378 0.000000 0.000000 0.000000 0.577671 4.244801 72.228472 11.271336 14.839602 2.930561 -7.640653 -0.677190 -5.414283 -0.470751 -10.343829 -5.916561 7.104741 -11.559890 0.863603 1.008558 -7.813854 -4.557857 0.000001 -0.000001 0.000003 2.674552 -4.239831 10.801752 -0.045336 -0.189000 19.226344 -0.053265 -0.137595 15.546243 -0.000001 -0.000000 -0.000002 -1.500432 -5.066627 15.545456 0.086119 -0.584000 26.650845 -0.051664 -0.069043 13.139774 0.000000 -0.000002 0.000002 -4.154872 -8.063592 13.611052 -0.025326 -0.302238 32.236761 0.106419 -0.616171 16.796212 0.000000 0.000000 0.000000 8.351516 10.643698 11.823851 23.877933 -8.655612 -1.942513 -32.693875 3.508958 -1.002025 -0.235848 -0.053463 0.107680 0.000000 0.000001 0.000000 -37.359823 -6.949186 -2.943134 25.644015 1.968523 1.222660 3.256490 1.178429 7.497563 2.816618 -1.971534 -0.307419 0.000000 -0.000000 0.000000 
4.086185 32.826622 7.083898 -0.848245 6.274438 -5.731694 10.401967 -1.491198 2.485679 1.273627 -1.788264 1.884378 0.000000 0.000000 0.000000 -3.086571 -1.937610 0.641755 -2.875667 -2.328187 5.878670 -5.125607 1.143905 -5.846475 -0.000000 0.000000 0.000000 1.738328 -2.704592 -1.152281 0.000000 0.000000 0.000000 -6.991230 -14.055427 -75.556427 10.158554 -13.161981 -4.994910 2.946557 -2.051332 8.656885 -4.437017 11.271960 11.729162 5.209696 9.829540 0.527484 2.490614 8.678532 3.298343 -0.000001 -0.000001 -0.000002 2.147816 -1.841604 -16.983757 -0.019987 0.145573 -19.843361 0.026210 0.091711 -17.943802 -0.000000 -0.000002 -0.000001 -0.260716 -0.377512 -21.022081 0.042228 0.289967 -24.663605 0.030983 0.021781 -17.261814 -0.000002 -0.000000 0.000000 -0.958150 1.219234 -21.323502 -0.026852 0.150374 -28.996294 0.070794 0.303416 -20.117812 -0.000002 0.000002 0.000002 2.373057 3.408520 5.817506 0.000000 0.000000 0.000000 0.773669 4.237547 72.357419 11.267702 14.704974 3.217567 -7.714432 -0.569653 -5.519627 -0.474380 -10.781635 -5.864793 6.994178 -11.541843 0.724859 0.970874 -7.478081 -4.356676 0.000003 -0.000004 -0.000002 2.654089 -3.972515 11.335040 -0.045315 -0.189014 19.255061 -0.052586 -0.137634 15.728449 0.000001 0.000001 -0.000000 -1.393032 -4.761467 15.989241 0.081608 -0.559107 26.425471 -0.050134 -0.070787 13.492916 -0.000001 -0.000000 -0.000000 -3.902710 -7.591997 14.337117 -0.025852 -0.289217 31.886752 0.103942 -0.588749 17.106794 0.000001 0.000000 -0.000001 9.349479 10.589154 11.962281 23.641633 -8.802530 -1.976404 -33.446173 3.680878 -1.146345 -0.515030 -0.085358 0.180263 0.000000 -0.000001 -0.000000 -36.995785 -7.141722 -2.923837 21.079077 2.129857 1.426115 3.714855 1.624029 7.086444 3.396713 -1.817008 -0.258572 -0.000000 0.000000 -0.000000 
